<svg xmlns="http://www.w3.org/2000/svg" width="55.586" height="67.5" viewBox="0 0 55.586 67.5"><path fill="#B0A377" d="M32.352 35.434h1.484v1.45h-1.484v-1.45zm-1.96 0h1.542v1.45H30.39v-1.45zm1.96-1.5h1.484v1.082h-1.484v-1.082zm-1.96 0h1.542v1.082H30.39v-1.082zm1.96-1.672h1.484v1.254h-1.484v-1.254zm-1.96 0h1.542v1.254H30.39v-1.254zm-3.81-.75h3.297v1.523h-3.3v-1.523zm16.086-.75c.187 0 .34.152.34.34 0 .187-.153.34-.34.34s-.34-.153-.34-.34c0-.188.153-.34.34-.34zm-10.32-.293h1.484v1.37h-1.484v-1.37zm-1.96 0h1.542v1.37h-1.543v-1.37zM19.91 28.94h16.75c.035.142.06.287.06.44v1.975h-2.376v-.988c0-.222-.188-.414-.414-.414h-3.64c-.224 0-.415.188-.415.414v.988h-3.297v-.488c0-.035-.027-.062-.058-.062H22.5c-.035 0-.062.027-.062.062v.488h-2.586v-1.742h16.86v-.152H19.85v-.08c0-.152.02-.297.054-.44h.004zm-9.53-.463c.186 0 .34.152.34.34 0 .187-.154.34-.34.34-.19 0-.34-.153-.34-.34 0-.188.15-.34.34-.34zm17.788-2.08c-.187 0-.34.154-.34.34 0 .19.153.34.34.34s.34-.15.34-.34c0-.186-.153-.34-.34-.34zm12.62-.13c.19 0 .34.15.34.338 0 .188-.15.34-.34.34-.186 0-.34-.152-.34-.34 0-.187.154-.34.34-.34zM15.82 26c.188 0 .34.152.34.34 0 .187-.152.34-.34.34-.187 0-.34-.153-.34-.34 0-.188.153-.34.34-.34zm28.996-1.078c.188 0 .34.152.34.34 0 .187-.152.34-.34.34-.187 0-.34-.153-.34-.34 0-.188.153-.34.34-.34zm-20.464-.56c-.188 0-.34.154-.34.34 0 .19.152.34.34.34.187 0 .34-.15.34-.34 0-.186-.153-.34-.34-.34zm-12.223-.65c.185 0 .34.15.34.34 0 .186-.155.34-.34.34-.19 0-.34-.154-.34-.34 0-.19.15-.34.34-.34zm19.84-.49c-.155 0-.28.126-.28.278s.125.277.28.277c.15 0 .275-.125.275-.277s-.125-.277-.277-.277zm3.45-.05c-.187 0-.34.152-.34.34 0 .187.153.34.34.34.188 0 .34-.153.34-.34 0-.188-.152-.34-.34-.34zm3.157-.602c.188 0 .34.153.34.34 0 .188-.152.34-.34.34-.187 0-.34-.152-.34-.34 0-.187.153-.34.34-.34zm5.016-1.27c.187 0 .34.153.34.34 0 .188-.153.34-.34.34-.188 0-.34-.152-.34-.34 0-.187.152-.34.34-.34zm-13.45-.062c.188 0 .34.153.34.34 0 .188-.152.34-.34.34-.187 0-.34-.152-.34-.34 0-.187.153-.34.34-.34zM18.51 20.96c.187 0 .34.153.34.34 0 .188-.153.34-.34.34-.188 0-.34-.152-.34-.34 0-.187.152-.34.34-.34zm3.527-.694h2.196c.05 0 .094.043.094.093v.303c0 .05-.043.094-.093.094h-.007c0 .015.004.027.004.043v1.653l12.215-.047.853 5.86c-.027-.008-.055-.012-.082-.012H18.94l.783-5.785 2.332-.01V20.8c0-.015.004-.042.004-.042h-.02c-.053 0-.096-.043-.096-.094v-.305c0-.05.043-.095.094-.095h-.005zm11.914-.825c.188 0 .34.155.34.34 0 .19-.152.34-.34.34-.187 0-.34-.15-.34-.34 0-.185.153-.34.34-.34zm-7.187-.49c.187 0 .34.153.34.34 0 .188-.153.34-.34.34-.188 0-.34-.152-.34-.34 0-.187.152-.34.34-.34zm13.695-.402c.188 0 .34.152.34.34 0 .187-.152.34-.34.34-.187 0-.34-.153-.34-.34 0-.188.153-.34.34-.34zm-24.617-.14c.188 0 .34.152.34.34 0 .187-.152.34-.34.34-.187 0-.34-.153-.34-.34 0-.188.153-.34.34-.34zm14.474-2.044c.187 0 .34.153.34.34 0 .188-.153.34-.34.34-.188 0-.34-.152-.34-.34 0-.187.152-.34.34-.34zm-7.778-.246c.324 0 .602.242.645.563.06-.01.12-.015.184-.015.582 0 1.055.473 1.055 1.05 0 .243-.083.477-.24.665.1.163.157.354.157.55 0 .582-.473 1.054-1.055 1.054-.206 0-.405-.062-.577-.172-.05.008-.1.012-.152.012-.58 0-1.054-.472-1.054-1.054 0-.49.335-.91.812-1.024v-.027c0-.11.018-.22.05-.326-.282-.08-.477-.336-.477-.625 0-.36.293-.65.652-.65v-.004zm13.18-.726c.187 0 .34.153.34.34 0 .188-.153.34-.34.34-.188 0-.34-.152-.34-.34 0-.187.152-.34.34-.34zm-12.383-.726c.188 0 .34.152.34.34 0 .187-.152.34-.34.34-.187 0-.34-.153-.34-.34 0-.188.153-.34.34-.34zm15.953-.488c.188 0 .34.152.34.34 0 .187-.152.34-.34.34-.187 0-.34-.153-.34-.34 0-.188.153-.34.34-.34zm-20.21-1.043c.187 0 .34.152.34.34 0 .187-.153.34-.34.34-.188 0-.34-.153-.34-.34 0-.188.152-.34.34-.34zm17.085-.82c.19 0 .34.152.34.34 0 .187-.15.34-.34.34-.186 0-.34-.153-.34-.34 0-.188.154-.34.34-.34zm-9.866-.88c.188 0 .34.153.34.34 0 .188-.152.34-.34.34s-.34-.152-.34-.34c0-.187.152-.34.34-.34zm5.57-.132c.188 0 .34.153.34.34 0 .188-.152.34-.34.34-.187 0-.34-.152-.34-.34 0-.187.153-.34.34-.34zm-4.07-1.62c-1.78 0-3.5.258-5.125.734v.02c0 .187-.153.34-.34.34-.118 0-.227-.063-.29-.16C14.863 13.02 9.7 19.792 9.7 27.777c0 2.117.364 4.148 1.032 6.035h.563c.36-.81 1.598-1.376 3.016-1.376.375 0 .746.043 1.093.12.555-.574 1.586-.93 2.707-.93.62 0 1.23.11 1.745.317v-.432h2.586v1.524h-2.584v.154h2.586v.23c0 .035.03.063.064.063h4.02c.035 0 .058-.027.058-.062v-.23h3.297v1.683H19.855v.154H29.88v1.484H19.854v.152H29.88v.317c0 .222.186.414.413.414h3.64c.223 0 .415-.187.415-.413v-.317h2.386v-.152h-2.386V35.02h2.386v-.153h-2.386v-1.683h2.386v-.153h-2.386v-1.52h2.375v.105c.414-.117.867-.175 1.328-.175 1.428 0 2.674.574 3.025 1.39.153-.012.305-.02.46-.023 1.173 0 2.247.39 2.782 1.007h.547c.668-1.886 1.032-3.917 1.032-6.035 0-9.997-8.098-18.094-18.094-18.094l-.007-.004zm0-.77c10.414 0 18.863 8.45 18.863 18.863 0 10.415-8.45 18.864-18.863 18.864S8.93 38.187 8.93 27.773C8.93 17.36 17.38 8.91 27.793 8.91zm0-8.91C12.444 0 0 12.433 0 27.773S27.785 67.5 27.785 67.5s27.8-24.383 27.8-39.727C55.585 12.433 43.145 0 27.795 0z"/></svg>